<svg width="151" height="151" viewBox="0 0 151 151" fill="none" xmlns="http://www.w3.org/2000/svg">
<g clip-path="url(#clip0_90_410)">
<path d="M0 131.53C0 142.284 8.7173 151 19.4702 151H131.529C142.284 151 151 142.283 151 131.53V19.4707C151 8.71612 142.283 0 131.53 0H19.4707C8.71612 0 0 8.7173 0 19.4702V131.53Z" fill="#563D7C"/>
<path d="M62.6166 66.7927V45.4091H81.4391C83.2322 45.4091 84.9605 45.5584 86.625 45.8574C88.2895 46.1559 89.7624 46.6891 91.0429 47.4576C92.3229 48.2262 93.3474 49.2932 94.116 50.6587C94.884 52.0248 95.2686 53.7749 95.2686 55.9083C95.2686 59.75 94.116 62.5246 91.8109 64.2316C89.5064 65.9392 86.5613 66.7927 82.9756 66.7927H62.6166ZM42.5129 29.7871V121.213H86.8173C90.9149 121.213 94.9058 120.701 98.7899 119.676C102.674 118.652 106.131 117.073 109.162 114.939C112.192 112.805 114.604 110.051 116.396 106.68C118.189 103.308 119.085 99.3167 119.085 94.7071C119.085 88.9874 117.698 84.1005 114.924 80.0459C112.149 75.9907 107.945 73.1524 102.311 71.5303C106.408 69.5673 109.503 67.0487 111.595 63.9756C113.686 60.9025 114.732 57.0615 114.732 52.4513C114.732 48.1832 114.027 44.5981 112.619 41.6955C111.21 38.7934 109.225 36.4671 106.664 34.717C104.104 32.967 101.031 31.7076 97.4451 30.9397C93.86 30.1711 89.8904 29.7871 85.5367 29.7871H42.5129ZM62.6166 105.591V80.4936H84.5122C88.8658 80.4936 92.3659 81.4963 95.0126 83.503C97.6586 85.5091 98.9822 88.8594 98.9822 93.5545C98.9822 95.9452 98.5764 97.9082 97.7654 99.4447C96.9543 100.981 95.8661 102.198 94.5 103.094C93.1345 103.991 91.5549 104.631 89.7624 105.015C87.9692 105.399 86.0918 105.591 84.1282 105.591H62.6166Z" fill="white"/>
</g>
<defs>
<clipPath id="clip0_90_410">
<rect width="151" height="151" fill="white"/>
</clipPath>
</defs>
</svg>
