<svg width="128" height="128" viewBox="0 0 128 128" fill="none" xmlns="http://www.w3.org/2000/svg">
<mask id="mask0_90_277" style="mask-type:luminance" maskUnits="userSpaceOnUse" x="18" y="1" width="92" height="126">
<path d="M18.8 1H109.3V127H18.8V1Z" fill="white"/>
</mask>
<g mask="url(#mask0_90_277)">
<path fill-rule="evenodd" clip-rule="evenodd" d="M21.1001 68.6999C21.3001 72.1999 24.8001 70.5999 26.4001 69.4999C27.9001 68.3999 28.4001 69.2999 28.5001 67.1999C28.6001 65.7999 28.7001 64.4999 28.7001 63.0999C26.4001 62.8999 23.9001 63.3999 22.0001 64.7999C21.1001 65.4999 19.2001 67.7999 21.1001 68.6999Z" fill="#F6D2A2"/>
</g>
<mask id="mask1_90_277" style="mask-type:luminance" maskUnits="userSpaceOnUse" x="18" y="1" width="92" height="126">
<path d="M18.8 1H109.3V127H18.8V1Z" fill="white"/>
</mask>
<g mask="url(#mask1_90_277)">
<path d="M23.0001 71.1998C22.3001 71.1998 21.0001 70.8998 20.8001 68.8998C20.2001 68.4998 20.0001 67.9998 20.0001 67.6998C19.9001 66.4998 21.2001 65.0998 21.9001 64.5998C23.5001 63.3998 25.6001 62.7998 27.8001 62.7998H29.1001V63.0998C29.2001 64.1998 29.1001 65.2998 29.0001 66.2998C29.0001 66.5998 29.0001 66.8998 28.9001 67.1998C28.8001 68.6998 28.5001 68.8998 27.8001 69.1998C27.5001 69.2998 27.2001 69.3998 26.7001 69.7998C26.2001 70.0998 24.5001 71.1998 23.0001 71.1998ZM27.8001 63.3998C25.7001 63.3998 23.8001 63.9998 22.3001 65.0998C21.6001 65.5998 20.6001 66.7998 20.7001 67.5998C20.7001 67.8998 20.9001 68.1998 21.3001 68.3998L21.5001 68.4998V68.6998C21.6001 70.2998 22.4001 70.4998 23.0001 70.4998C24.0001 70.4998 25.4001 69.7998 26.3001 69.1998C26.9001 68.7998 27.3001 68.6998 27.6001 68.5998C28.1001 68.3998 28.2001 68.3998 28.3001 67.1998C28.3001 66.8998 28.3001 66.5998 28.4001 66.2998C28.5001 65.3998 28.5001 64.3998 28.5001 63.4998C28.2001 63.3998 28.0001 63.3998 27.8001 63.3998Z" fill="black"/>
</g>
<mask id="mask2_90_277" style="mask-type:luminance" maskUnits="userSpaceOnUse" x="18" y="1" width="92" height="126">
<path d="M18.8 1H109.3V127H18.8V1Z" fill="white"/>
</mask>
<g mask="url(#mask2_90_277)">
<path fill-rule="evenodd" clip-rule="evenodd" d="M21.1001 68.6999C21.6001 68.4999 22.2001 68.3999 22.5001 67.8999Z" fill="#C6B198"/>
</g>
<mask id="mask3_90_277" style="mask-type:luminance" maskUnits="userSpaceOnUse" x="18" y="1" width="92" height="126">
<path d="M18.8 1H109.3V127H18.8V1Z" fill="white"/>
</mask>
<g mask="url(#mask3_90_277)">
<path d="M21.1 69C21 69 20.8 68.9 20.8 68.8C20.7 68.6 20.8 68.4 21 68.4C21.1 68.4 21.2 68.3 21.2 68.3C21.6 68.1 22 68 22.2 67.7C22.3 67.6 22.5 67.5 22.7 67.6C22.8 67.7 22.9 67.9 22.8 68.1C22.4 68.6 21.9 68.8 21.5 68.9L21.3 69H21.1Z" fill="black"/>
</g>
<mask id="mask4_90_277" style="mask-type:luminance" maskUnits="userSpaceOnUse" x="18" y="1" width="92" height="126">
<path d="M18.8 1H109.3V127H18.8V1Z" fill="white"/>
</mask>
<g mask="url(#mask4_90_277)">
<path fill-rule="evenodd" clip-rule="evenodd" d="M29.3001 26.4002C15.7001 22.6002 25.8001 5.30015 36.7001 12.4002L29.3001 26.4002Z" fill="#6AD7E5"/>
</g>
<mask id="mask5_90_277" style="mask-type:luminance" maskUnits="userSpaceOnUse" x="18" y="1" width="92" height="126">
<path d="M18.8 1H109.3V127H18.8V1Z" fill="white"/>
</mask>
<g mask="url(#mask5_90_277)">
<path d="M29.5002 26.7999L29.2002 26.6999C22.2002 24.6999 22.3002 19.6999 22.5002 18.1999C23.0002 14.3999 26.6002 10.3999 31.4002 10.3999C33.3002 10.3999 35.1002 10.9999 36.9002 12.1999L37.2002 12.3999L29.5002 26.7999ZM31.4002 11.0999C26.9002 11.0999 23.6002 14.7999 23.1002 18.2999C22.6002 21.8999 24.8002 24.6999 29.1002 25.9999L36.2002 12.4999C34.7002 11.5999 33.1002 11.0999 31.4002 11.0999Z" fill="black"/>
</g>
<mask id="mask6_90_277" style="mask-type:luminance" maskUnits="userSpaceOnUse" x="18" y="1" width="92" height="126">
<path d="M18.8 1H109.3V127H18.8V1Z" fill="white"/>
</mask>
<g mask="url(#mask6_90_277)">
<path fill-rule="evenodd" clip-rule="evenodd" d="M89.6001 11.1C100.3 3.59997 110.1 20.6 97.6001 24.9L89.6001 11.1Z" fill="#6AD7E5"/>
</g>
<mask id="mask7_90_277" style="mask-type:luminance" maskUnits="userSpaceOnUse" x="18" y="1" width="92" height="126">
<path d="M18.8 1H109.3V127H18.8V1Z" fill="white"/>
</mask>
<g mask="url(#mask7_90_277)">
<path d="M97.5 25.2998L89.2 10.9998L89.5 10.7998C91.4 9.4998 93.3 8.7998 95.2 8.7998C99.8 8.7998 103.1 12.5998 103.8 16.2998C104.1 17.7998 104.4 22.8998 97.8 25.0998L97.5 25.2998ZM90.1 11.2998L97.8 24.5998C101.7 23.1998 103.7 20.1998 103.1 16.5998C102.5 13.1998 99.4 9.6998 95.2 9.6998C93.5 9.5998 91.8 10.0998 90.1 11.2998Z" fill="black"/>
</g>
<mask id="mask8_90_277" style="mask-type:luminance" maskUnits="userSpaceOnUse" x="18" y="1" width="92" height="126">
<path d="M18.8 1H109.3V127H18.8V1Z" fill="white"/>
</mask>
<g mask="url(#mask8_90_277)">
<path fill-rule="evenodd" clip-rule="evenodd" d="M92 112.3C94.7 114 99.7 119.1 95.6 121.6C91.7 125.2 89.5 117.6 86 116.6C87.5 114.6 89.4 112.7 92 112.3Z" fill="#F6D2A2"/>
</g>
<mask id="mask9_90_277" style="mask-type:luminance" maskUnits="userSpaceOnUse" x="18" y="1" width="92" height="126">
<path d="M18.8 1H109.3V127H18.8V1Z" fill="white"/>
</mask>
<g mask="url(#mask9_90_277)">
<path d="M93.5001 122.9C91.9001 122.9 90.5001 121.3 89.3001 119.8C88.2001 118.6 87.1001 117.3 85.9001 116.9L85.4001 116.8L85.7001 116.4C86.9001 114.7 88.9001 112.5 91.9001 112H92.0001L92.1001 112.1C93.8001 113.2 97.5001 116.3 97.4001 119.2C97.4001 120.3 96.8001 121.2 95.7001 121.9C95.0001 122.6 94.3001 122.9 93.5001 122.9ZM86.5001 116.4C87.7001 116.9 88.7001 118.2 89.7001 119.3C90.9001 120.8 92.1001 122.1 93.4001 122.1C94.0001 122.1 94.6001 121.8 95.2001 121.2H95.3001C96.2001 120.6 96.7001 119.9 96.7001 119C96.7001 116.7 93.8001 113.8 91.8001 112.5C90.0001 113 88.2001 114.2 86.5001 116.4ZM95.6001 121.9C95.5001 121.9 95.4001 121.8 95.3001 121.7C95.1001 121.3 94.9001 120.8 94.8001 120.4C94.5001 119.6 94.2001 118.8 93.6001 118.2C93.5001 118.1 93.5001 117.9 93.6001 117.7C93.7001 117.6 93.9001 117.6 94.1001 117.7C94.8001 118.4 95.2001 119.3 95.5001 120.2L96.0001 121.4C96.1001 121.6 96.0001 121.8 95.9001 121.9H95.6001Z" fill="black"/>
</g>
<mask id="mask10_90_277" style="mask-type:luminance" maskUnits="userSpaceOnUse" x="18" y="1" width="92" height="126">
<path d="M18.8 1H109.3V127H18.8V1Z" fill="white"/>
</mask>
<g mask="url(#mask10_90_277)">
<path fill-rule="evenodd" clip-rule="evenodd" d="M43.2 118.1C40 118.6 38.2 121.5 35.5 123C33 124.5 32 122.5 31.8 122.1C31.4 121.9 31.4 122.3 30.8 121.7C28.5 118 33.2 115.3 35.7 113.5C39.2 112.7 41.4 115.7 43.2 118.1Z" fill="#F6D2A2"/>
</g>
<mask id="mask11_90_277" style="mask-type:luminance" maskUnits="userSpaceOnUse" x="18" y="1" width="92" height="126">
<path d="M18.8 1H109.3V127H18.8V1Z" fill="white"/>
</mask>
<g mask="url(#mask11_90_277)">
<path d="M33.8 123.8C32.5 123.8 31.8 122.7 31.6 122.3H31.5C31.2 122.3 31 122.2 30.6 121.8V121.7C28.4 118.2 32.2 115.5 34.7 113.7L35.6 113.1H35.8C36.2 113 36.5 113 36.9 113C39.9 113 41.8 115.6 43.4 117.7L43.9 118.4L43.3 118.5C41.4 118.8 40 120 38.6 121.2C37.7 122 36.8 122.7 35.8 123.3C35 123.6 34.4 123.8 33.8 123.8ZM31.6 121.7C31.7 121.7 31.8 121.7 32 121.8H32.1L32.2 121.9C32.4 122.2 32.9 123.1 33.9 123.1C34.4 123.1 34.9 122.9 35.4 122.6C36.4 122.1 37.3 121.3 38.1 120.6C39.4 119.5 40.8 118.3 42.6 117.8C41.1 115.8 39.3 113.6 36.8 113.6C36.5 113.6 36.2 113.6 35.9 113.7L35.1 114.3C32.5 116.1 29.3 118.4 31.2 121.4C31.3 121.6 31.4 121.7 31.6 121.7ZM31.8 122.4C31.6 122.4 31.4 122.2 31.5 122C31.6 121 32.1 120.3 32.6 119.5C32.9 119.1 33.1 118.7 33.3 118.3C33.4 118.1 33.6 118.1 33.7 118.1C33.9 118.2 33.9 118.4 33.9 118.5C33.7 119 33.4 119.4 33.1 119.8C32.6 120.5 32.2 121.1 32.1 121.9C32.1 122.3 32 122.4 31.8 122.4Z" fill="black"/>
</g>
<mask id="mask12_90_277" style="mask-type:luminance" maskUnits="userSpaceOnUse" x="18" y="1" width="92" height="126">
<path d="M18.8 1H109.3V127H18.8V1Z" fill="white"/>
</mask>
<g mask="url(#mask12_90_277)">
<path fill-rule="evenodd" clip-rule="evenodd" d="M29.8999 21.7C28.0999 20.8 26.7999 19.5 27.8999 17.4C28.8999 15.5 30.7999 15.7 32.5999 16.6L29.8999 21.7ZM94.7999 19.9C96.5999 19 97.8999 17.7 96.7999 15.6C95.7999 13.7 93.8999 13.9 92.0999 14.8L94.7999 19.9Z" fill="black"/>
</g>
<mask id="mask13_90_277" style="mask-type:luminance" maskUnits="userSpaceOnUse" x="18" y="1" width="92" height="126">
<path d="M18.8 1H109.3V127H18.8V1Z" fill="white"/>
</mask>
<g mask="url(#mask13_90_277)">
<path fill-rule="evenodd" clip-rule="evenodd" d="M107.1 68.1999C106.9 71.6999 103.4 70.0999 101.8 68.9999C100.3 67.8999 99.8 68.7999 99.7 66.6999C99.6 65.2999 99.5 63.9999 99.5 62.5999C101.8 62.3999 104.3 62.8999 106.2 64.2999C107.2 65.0999 109 67.2999 107.1 68.1999Z" fill="#F6D2A2"/>
</g>
<mask id="mask14_90_277" style="mask-type:luminance" maskUnits="userSpaceOnUse" x="18" y="1" width="92" height="126">
<path d="M18.8 1H109.3V127H18.8V1Z" fill="white"/>
</mask>
<g mask="url(#mask14_90_277)">
<path d="M105.3 70.6998C103.8 70.6998 102.1 69.5998 101.6 69.2998C101.1 68.9998 100.8 68.7998 100.5 68.6998C99.7001 68.3998 99.5001 68.1998 99.4001 66.6998C99.4001 66.3998 99.4001 66.0998 99.3001 65.7998C99.2001 64.7998 99.1001 63.6998 99.2001 62.5998V62.2998H100.5C102.7 62.2998 104.8 62.8998 106.4 64.0998C107.1 64.5998 108.4 65.9998 108.3 67.1998C108.3 67.5998 108.1 68.0998 107.5 68.3998C107.3 70.3998 106 70.6998 105.3 70.6998ZM99.8001 62.9998C99.8001 63.8998 99.8001 64.8998 99.9001 65.7998C99.9001 66.0998 99.9001 66.3998 100 66.6998C100.1 67.8998 100.2 67.8998 100.7 68.0998C101 68.1998 101.4 68.3998 102 68.6998C102.9 69.2998 104.3 69.9998 105.3 69.9998C105.9 69.9998 106.7 69.7998 106.8 68.1998V67.9998L107 67.8998C107.4 67.6998 107.6 67.4998 107.6 67.0998C107.7 66.2998 106.7 65.0998 106 64.5998C104.5 63.4998 102.5 62.8998 100.5 62.8998C100.3 62.9998 100.1 62.9998 99.8001 62.9998Z" fill="black"/>
</g>
<mask id="mask15_90_277" style="mask-type:luminance" maskUnits="userSpaceOnUse" x="18" y="1" width="92" height="126">
<path d="M18.8 1H109.3V127H18.8V1Z" fill="white"/>
</mask>
<g mask="url(#mask15_90_277)">
<path fill-rule="evenodd" clip-rule="evenodd" d="M107.1 68.1999C106.6 67.9999 106 67.8999 105.7 67.3999Z" fill="#C6B198"/>
</g>
<mask id="mask16_90_277" style="mask-type:luminance" maskUnits="userSpaceOnUse" x="18" y="1" width="92" height="126">
<path d="M18.8 1H109.3V127H18.8V1Z" fill="white"/>
</mask>
<g mask="url(#mask16_90_277)">
<path d="M107.1 68.6H107L106.8 68.5C106.3 68.3 105.8 68.2 105.5 67.7C105.4 67.6 105.4 67.3 105.6 67.2C105.7 67.1 106 67.1 106.1 67.3C106.3 67.6 106.7 67.7 107.1 67.9C107.2 67.9 107.3 68 107.3 68C107.5 68.1 107.6 68.3 107.5 68.4C107.4 68.5 107.2 68.6 107.1 68.6Z" fill="black"/>
</g>
<mask id="mask17_90_277" style="mask-type:luminance" maskUnits="userSpaceOnUse" x="18" y="1" width="92" height="126">
<path d="M18.8 1H109.3V127H18.8V1Z" fill="white"/>
</mask>
<g mask="url(#mask17_90_277)">
<path fill-rule="evenodd" clip-rule="evenodd" d="M62.8001 4C76.4001 4 89.1001 5.9 95.8001 19C101.8 33.6 99.6001 49.4 100.6 64.9C101.4 78.2 103.1 93.5 97.0001 105.8C90.5001 118.7 74.3001 122 61.0001 121.5C50.5001 121.1 37.9001 117.7 31.9001 108.1C25.0001 96.9 28.2001 80.2 28.7001 67.7C29.3001 52.9 24.7001 38 29.6001 23.6C34.5001 8.5 48.1001 5.1 62.8001 4Z" fill="#6AD7E5"/>
</g>
<mask id="mask18_90_277" style="mask-type:luminance" maskUnits="userSpaceOnUse" x="18" y="1" width="92" height="126">
<path d="M18.8 1H109.3V127H18.8V1Z" fill="white"/>
</mask>
<g mask="url(#mask18_90_277)">
<path d="M63.3 121.9H60.8C56.7 121.8 50.5 121.1 44.4 118.6C38.5 116.2 34.2 112.8 31.4 108.3C25.8 99.1999 26.8 86.6999 27.7 75.5999C27.9 72.7999 28.1 70.1999 28.2 67.6999C28.4 62.4999 28 57.0999 27.5 51.9999C26.7 42.5999 25.9 32.8999 29 23.4999C31.4 16.4999 35.7 11.4999 42.2 8.2999C47.3 5.7999 53.6 4.3999 62.6 3.6999C76 3.5999 89.3 5.4999 96 18.7999C100.4 29.4999 100.4 40.9999 100.5 52.0999C100.5 56.2999 100.5 60.5999 100.8 64.7999C100.9 66.0999 101 67.3999 101 68.6999C101.8 80.8999 102.7 94.6999 97.1 105.9C94.3 111.6 89.4 115.8 82.7 118.5C77.3 120.7 70.5 121.9 63.3 121.9ZM62.8 4.2999C48.7 5.3999 34.9 8.49991 29.8 23.6999C26.7 32.9999 27.5 42.5999 28.3 51.8999C28.7 57.0999 29.2 62.3999 29 67.6999C28.9 70.1999 28.7 72.7999 28.5 75.5999C27.6 86.5999 26.6 98.9999 32.1 107.9C34.4 111.6 41.8001 120.4 60.9001 121.1H63.4001C85.5001 121.1 93.7 111.3 96.7 105.5C102.2 94.4999 101.3 80.6999 100.6 68.5999C100.5 67.2999 100.4 65.9999 100.4 64.6999C100.2 60.4999 100.1 56.1999 100.1 51.9999C100 40.9999 100 29.4999 95.7 18.8999C92.7 12.9999 88.2 8.9999 82 6.6999C75.6 4.5999 68.4 4.2999 62.8 4.2999Z" fill="black"/>
</g>
<mask id="mask19_90_277" style="mask-type:luminance" maskUnits="userSpaceOnUse" x="18" y="1" width="92" height="126">
<path d="M18.8 1H109.3V127H18.8V1Z" fill="white"/>
</mask>
<g mask="url(#mask19_90_277)">
<path fill-rule="evenodd" clip-rule="evenodd" d="M65.2 22.2C67.6 36.4 90.8 32.6 87.5 18.3C84.5 5.49999 64.4 9.09999 65.2 22.2Z" fill="white"/>
</g>
<mask id="mask20_90_277" style="mask-type:luminance" maskUnits="userSpaceOnUse" x="18" y="1" width="92" height="126">
<path d="M18.8 1H109.3V127H18.8V1Z" fill="white"/>
</mask>
<g mask="url(#mask20_90_277)">
<path d="M76.2 31.5001C71.7 31.5001 66 29.1001 64.8 22.3001C64.6 19.1001 65.6 16.2001 67.7 14.0001C70 11.5001 73.5 10.1001 77.1 10.1001C81.3 10.1001 86.3 12.3001 87.7 18.4001C88.5 21.8001 87.9 24.8001 86 27.2001C83.9 29.8001 80.2 31.5001 76.2 31.5001ZM65.5 22.2001C66 25.0001 67.3 27.2001 69.4 28.8001C71.2 30.2001 73.7 30.9001 76.2 30.9001C79.9 30.9001 83.5 29.3001 85.5 26.8001C87.3 24.6001 87.8 21.7001 87.1 18.5001C85.8 12.8001 81.1 10.8001 77.1 10.8001C73.7 10.8001 70.4 12.2001 68.2 14.5001C66.3 16.5001 65.3 19.2001 65.5 22.2001Z" fill="black"/>
</g>
<mask id="mask21_90_277" style="mask-type:luminance" maskUnits="userSpaceOnUse" x="18" y="1" width="92" height="126">
<path d="M18.8 1H109.3V127H18.8V1Z" fill="white"/>
</mask>
<g mask="url(#mask21_90_277)">
<path fill-rule="evenodd" clip-rule="evenodd" d="M37.5001 24.4999C40.7001 36.7999 60.4001 33.6999 59.7001 21.2999C58.8001 6.49994 34.4001 9.29994 37.5001 24.4999Z" fill="white"/>
</g>
<mask id="mask22_90_277" style="mask-type:luminance" maskUnits="userSpaceOnUse" x="18" y="1" width="92" height="126">
<path d="M18.8 1H109.3V127H18.8V1Z" fill="white"/>
</mask>
<g mask="url(#mask22_90_277)">
<path d="M48 32.7002C43.7 32.7002 38.7 30.6002 37.1 24.6002C36.4 21.1002 37.1 17.9002 39.1 15.5002C41.3 12.8002 44.9 11.2002 48.8 11.2002C54 11.2002 59.5 14.3002 59.9 21.3002C60.1 24.2002 59.2 26.8002 57.2 28.9002C55.1 31.2002 51.6 32.7002 48 32.7002ZM48.8 11.9002C45.1 11.9002 41.7 13.4002 39.6 15.9002C37.7 18.2002 37.1 21.1002 37.8 24.4002C39.2 30.0002 44 32.0002 48 32.0002C51.4 32.0002 54.7 30.7002 56.8 28.4002C58.6 26.5002 59.5 24.0002 59.3 21.3002C59.1 17.0002 56.2 11.9002 48.8 11.9002Z" fill="black"/>
</g>
<mask id="mask23_90_277" style="mask-type:luminance" maskUnits="userSpaceOnUse" x="18" y="1" width="92" height="126">
<path d="M18.8 1H109.3V127H18.8V1Z" fill="white"/>
</mask>
<g mask="url(#mask23_90_277)">
<path fill-rule="evenodd" clip-rule="evenodd" d="M68.0002 39.1999C68.0002 40.9999 68.4002 43.0999 68.1002 45.0999C67.6002 45.9999 66.7002 46.0999 65.9002 46.3999C64.8002 46.1999 63.9002 45.4999 63.4002 44.4999C63.1002 42.2999 63.5002 40.0999 63.6002 37.8999L68.0002 39.1999Z" fill="white"/>
</g>
<mask id="mask24_90_277" style="mask-type:luminance" maskUnits="userSpaceOnUse" x="18" y="1" width="92" height="126">
<path d="M18.8 1H109.3V127H18.8V1Z" fill="white"/>
</mask>
<g mask="url(#mask24_90_277)">
<path d="M65.9001 46.8001C64.6001 46.6001 63.6001 45.8001 63.1001 44.7001C62.9001 43.1001 63.0001 41.6001 63.1001 40.1001C63.2001 39.4001 63.2001 38.7001 63.2001 38.0001V37.6001L68.3001 39.2001V39.4001C68.3001 40.0001 68.4001 40.6001 68.4001 41.3001C68.5001 42.6001 68.6001 44.0001 68.4001 45.3001V45.4001C68.0001 46.2001 67.3001 46.4001 66.6001 46.7001C66.4001 46.6001 66.2001 46.7001 65.9001 46.8001ZM63.7001 44.4001C64.1001 45.3001 64.9001 45.9001 65.8001 46.1001C66.0001 46.0001 66.2001 46.0001 66.3001 45.9001C66.9001 45.7001 67.4001 45.5001 67.7001 45.0001C67.9001 43.8001 67.8001 42.5001 67.7001 41.2001C67.7001 40.6001 67.6001 40.0001 67.6001 39.5001L63.8001 38.3001C63.8001 38.9001 63.7001 39.5001 63.7001 40.0001C63.6001 41.6001 63.5001 43.0001 63.7001 44.4001Z" fill="black"/>
</g>
<mask id="mask25_90_277" style="mask-type:luminance" maskUnits="userSpaceOnUse" x="18" y="1" width="92" height="126">
<path d="M18.8 1H109.3V127H18.8V1Z" fill="white"/>
</mask>
<g mask="url(#mask25_90_277)">
<path fill-rule="evenodd" clip-rule="evenodd" d="M46.2999 22.4999C46.2999 24.4999 44.8 26.0999 43 26.0999C41.2 26.0999 39.7 24.4999 39.7 22.4999C39.7 20.4999 41.2 18.8999 43 18.8999C44.8 18.8999 46.2999 20.4999 46.2999 22.4999Z" fill="black"/>
</g>
<mask id="mask26_90_277" style="mask-type:luminance" maskUnits="userSpaceOnUse" x="18" y="1" width="92" height="126">
<path d="M18.8 1H109.3V127H18.8V1Z" fill="white"/>
</mask>
<g mask="url(#mask26_90_277)">
<path fill-rule="evenodd" clip-rule="evenodd" d="M45.2001 23.2999C45.2001 23.7999 44.8001 24.1999 44.4001 24.1999C44.0001 24.1999 43.6001 23.7999 43.6001 23.2999C43.6001 22.7999 44.0001 22.3999 44.4001 22.3999C44.9001 22.3999 45.2001 22.7999 45.2001 23.2999Z" fill="white"/>
</g>
<mask id="mask27_90_277" style="mask-type:luminance" maskUnits="userSpaceOnUse" x="18" y="1" width="92" height="126">
<path d="M18.8 1H109.3V127H18.8V1Z" fill="white"/>
</mask>
<g mask="url(#mask27_90_277)">
<path fill-rule="evenodd" clip-rule="evenodd" d="M74.2001 21.6C74.2001 23.6 72.7001 25.2 70.9001 25.2C69.1001 25.2 67.6001 23.6 67.6001 21.6C67.6001 19.6 69.1001 18 70.9001 18C72.7001 18 74.2001 19.6 74.2001 21.6Z" fill="black"/>
</g>
<mask id="mask28_90_277" style="mask-type:luminance" maskUnits="userSpaceOnUse" x="18" y="1" width="92" height="126">
<path d="M18.8 1H109.3V127H18.8V1Z" fill="white"/>
</mask>
<g mask="url(#mask28_90_277)">
<path fill-rule="evenodd" clip-rule="evenodd" d="M73.1999 22.4C73.1999 22.9 72.8999 23.3 72.3999 23.3C71.9999 23.3 71.5999 22.9 71.5999 22.4C71.5999 21.9 71.8999 21.5 72.3999 21.5C72.7999 21.5 73.1999 21.9 73.1999 22.4ZM58.3999 39C56.8999 42.5 59.1999 49.6 63.1999 44.4C62.8999 42.2 63.2999 40 63.3999 37.8L58.3999 39Z" fill="white"/>
</g>
<mask id="mask29_90_277" style="mask-type:luminance" maskUnits="userSpaceOnUse" x="18" y="1" width="92" height="126">
<path d="M18.8 1H109.3V127H18.8V1Z" fill="white"/>
</mask>
<g mask="url(#mask29_90_277)">
<path d="M60.5001 46.5998C59.8001 46.5998 59.1001 46.1998 58.6001 45.3998C57.5001 43.7998 57.3001 40.7998 58.1001 38.8998L58.2001 38.6998L63.7001 37.2998V37.6998L63.6001 39.8998C63.5001 41.3998 63.4001 42.7998 63.6001 44.2998V44.3998L63.5001 44.4998C62.5001 45.8998 61.5001 46.5998 60.5001 46.5998ZM58.7001 39.2998C58.1001 40.9998 58.3001 43.6998 59.2001 44.9998C59.6001 45.5998 60.0001 45.8998 60.5001 45.8998C61.2001 45.8998 62.0001 45.2998 62.8001 44.2998C62.6001 42.7998 62.7001 41.2998 62.9001 39.8998L63.0001 38.1998L58.7001 39.2998Z" fill="black"/>
</g>
<mask id="mask30_90_277" style="mask-type:luminance" maskUnits="userSpaceOnUse" x="18" y="1" width="92" height="126">
<path d="M18.8 1H109.3V127H18.8V1Z" fill="white"/>
</mask>
<g mask="url(#mask30_90_277)">
<path fill-rule="evenodd" clip-rule="evenodd" d="M58.9002 32.1998C56.2002 32.3998 54.0002 35.6998 55.4002 38.1998C57.3002 41.5998 61.4002 37.8998 64.0002 38.1998C67.0002 38.2998 69.4002 41.3998 71.8002 38.7998C74.5002 35.8998 70.6002 33.0998 67.7002 31.7998L58.9002 32.1998Z" fill="#F6D2A2"/>
</g>
<mask id="mask31_90_277" style="mask-type:luminance" maskUnits="userSpaceOnUse" x="18" y="1" width="92" height="126">
<path d="M18.8 1H109.3V127H18.8V1Z" fill="white"/>
</mask>
<g mask="url(#mask31_90_277)">
<path fill-rule="evenodd" clip-rule="evenodd" d="M58.6 32.0999C58.4 27.3999 67.4 26.7999 68.4 30.6999C69.5 34.6999 59 35.5999 58.6 32.0999Z" fill="black"/>
</g>
</svg>
