<svg width="155" height="155" viewBox="0 0 155 155" fill="none" xmlns="http://www.w3.org/2000/svg">
<g clip-path="url(#clip0_90_415)">
<path d="M97.1444 125.938C98.3553 127.687 99.0952 127.552 100.037 127.149C100.978 126.745 149.416 110.397 150.896 109.859C152.376 109.321 151.905 108.85 151.435 108.11C150.964 107.37 134.818 85.4385 134.01 84.1603C133.203 82.8822 132.799 83.151 131.521 83.5549L80.1743 96.9157C80.1743 96.9157 95.9335 124.188 97.1444 125.938ZM155 103.605V77.9343C149.223 79.4734 141.916 81.4194 139.032 82.1865C143.383 88.0087 150.186 97.1204 155 103.605ZM138.982 50.5695C138.191 50.7494 120.669 53.916 119.589 54.0595C118.51 54.2036 118.87 54.8151 119.302 55.4266L134.721 76.5835C134.721 76.5835 153.575 71.9063 154.726 71.6544C154.82 71.6338 154.911 71.612 155 71.5896V68.7881C151.573 64.4426 142.237 52.6112 141.43 51.5056C140.458 50.1742 139.774 50.3903 138.982 50.5695Z" fill="#EA1A1A"/>
<path d="M28.7332 17.337C32.5277 17.1644 32.874 18.0278 34.5409 20.5L76.4212 90.5176L129.081 77.9026C126.163 73.7667 112.918 54.9881 111.638 53.1959C110.199 51.1809 111.674 50.2454 114.013 49.8501C116.351 49.4541 136.5 46.0719 138.227 45.8201C139.954 45.5682 141.322 44.9567 144.128 48.3388C145.564 50.0692 150.432 56.1312 155 61.8135V29.0625C155 21.057 152.157 14.2116 146.473 8.52682C140.789 2.84268 133.943 0 125.938 0H29.0626C21.0571 0 14.2117 2.84268 8.52691 8.52682C5.26647 11.7885 2.9457 15.4316 1.55615 19.4561C11.0487 18.6763 26.0776 17.4581 28.7332 17.337Z" fill="#EA1A1A"/>
<path d="M101.894 135.361C97.4532 136.706 95.4618 137.374 92.5695 133.338C90.4031 130.314 78.6879 109.214 72.9438 98.8119C62.0727 101.659 42.1776 106.851 36.4401 108.23C30.8408 109.575 28.4492 106.218 27.5295 104.149C26.8846 102.697 10.4679 67.3027 0 44.5928V125.938C0 133.944 2.84268 140.788 8.52682 146.473C14.2116 152.157 21.057 155 29.0625 155H125.938C133.943 155 140.788 152.157 146.473 146.473C152.157 140.788 155 133.944 155 125.938V116.383C143.109 120.732 104.885 134.455 101.894 135.361Z" fill="#EA1A1A"/>
<path d="M36.5778 100.077C38.152 99.7163 67.6462 92.6577 68.2759 92.5227C68.9056 92.3877 69.31 92.0281 68.6355 90.8595C67.9611 89.6909 29.32 22.9925 29.32 22.9925C28.9634 22.3804 29.0651 22.1763 28.0958 22.2272C27.2318 22.2732 5.3677 24.224 0.305977 24.6466C0.156561 25.7169 0.0633927 26.7943 0.0268555 27.8744C5.16547 38.3944 34.6591 99.221 34.8244 99.7163C35.0042 100.256 35.0042 100.436 36.5778 100.077Z" fill="#EA1A1A"/>
</g>
<defs>
<clipPath id="clip0_90_415">
<rect width="155" height="155" fill="white"/>
</clipPath>
</defs>
</svg>
