<svg width="127" height="127" viewBox="0 0 127 127" fill="none" xmlns="http://www.w3.org/2000/svg">
<path d="M97.896 50.3237C93.9275 48.9569 90.4246 46.4993 87.7889 43.2329C84.884 39.5934 81.1852 36.6666 76.9754 34.6764C72.7656 32.6861 68.1563 31.6851 63.5002 31.7499C57.2368 31.3064 51.0361 33.2382 46.1329 37.1607C41.2298 41.0832 37.984 46.7086 37.0418 52.9166C38.8975 49.8117 41.6903 47.3755 45.0185 45.9587C48.3466 44.5419 52.0384 44.2174 55.5627 45.032C59.5245 46.4386 63.0217 48.9104 65.6698 52.1758C68.5905 55.7861 72.2964 58.6827 76.5053 60.645C80.7143 62.6074 85.3154 63.5838 89.9585 63.4999C96.2219 63.9435 102.423 62.0117 107.326 58.0892C112.229 54.1667 115.475 48.5413 116.417 42.3333C114.595 45.4753 111.811 47.9483 108.476 49.3871C105.141 50.8259 101.432 51.1542 97.896 50.3237ZM29.1043 76.6762C33.0728 78.043 36.5757 80.5005 39.2114 83.767C42.1163 87.4065 45.8151 90.3333 50.0249 92.3235C54.2348 94.3138 58.844 95.3148 63.5002 95.2499C69.7636 95.6935 75.9642 93.7617 80.8674 89.8392C85.7705 85.9167 89.0164 80.2913 89.9585 74.0833C88.1029 77.1882 85.31 79.6244 81.9819 81.0412C78.6537 82.458 74.9619 82.7825 71.4377 81.9679C67.4758 80.5613 63.9786 78.0894 61.3306 74.8241C58.402 71.2227 54.6946 68.3325 50.4875 66.371C46.2804 64.4095 41.6832 63.4279 37.0418 63.4999C30.7784 63.0564 24.5778 64.9882 19.6746 68.9107C14.7715 72.8332 11.5256 78.4586 10.5835 84.6666C12.4055 81.5246 15.1894 79.0516 18.5244 77.6128C21.8593 76.174 25.5685 75.8456 29.1043 76.6762Z" fill="#595BD4"/>
</svg>
